<svg xmlns="http://www.w3.org/2000/svg" viewBox="0 0 512 512" width="128" height="128">
  <path
    d="M471.15 342.61a15.92 15.92 0 01-11.32-4.69l-68.51-68.52L309 283.75a75.92 75.92 0 01-45.24 14.88c-28.53 0-56.07-11.16-76.67-31.76-41.7-41.7-46.26-105.86-25.5-155.09 2.59-5.52 1.55-12.14-2.32-16.01a11.84 11.84 0 00-9.7-2.6c-40.57 10.74-92.83 6.09-128.1-29.18-42.86-42.86-49.29-112.27-14.62-170.44C112.77 10.06 149.84.07 184.37.07a152.46 152.46 0 01107.75 44.65 152.28 152.28 0 0144.65 107.75c0 34.53-10 71.6-30.63 103.2a11.85 11.85 0 00-2.6 9.7c3.87 3.87 10.49 4.92 16.01 2.33 49.23-20.76 113.39-16.2 155.08 25.5 20.6 20.6 31.76 48.14 31.76 76.67a75.94 75.94 0 01-14.88 45.25l-22.85 22.85 68.52 68.51a15.93 15.93 0 010 22.63l-22.63 22.63a15.92 15.92 0 01-11.31 4.69z"
    fill="currentColor"
  />
</svg>
